# xmcd CD database file
#
# Track frame offsets:
#	150
#	22707
#	39337
#	57247
#	72587
#	89567
#	102685
#	122697
#	145755
#	168302
#	182532
#	203287
#
# Disc length: 3036 seconds
#
# Revision: 0
# Processed by: cddbd v1.5.1PL2 Copyright (c) Steve Scherf et al.
# Submitted via: CDex 1.51
#
DISCID=9c0bda0c
DTITLE=the checkers - memorial CD BOX3
DYEAR=1900
DGENRE=JPop
TTITLE0=I Love you,SAYONARA
TTITLE1=PARTY EVERYDAY
TTITLE2=WANDERER
TTITLE3=JAWSが島にやってきた！
TTITLE4=Blue Rain
TTITLE5=WのCherry Boys
TTITLE6=ONE NIGHT GIGOLO
TTITLE7=TOY BOX
TTITLE8=Jim＆Janeの伝説
TTITLE9=On The Way
TTITLE10=素直にI’m Sorry
TTITLE11=Cry for The Moon
EXTD=
EXTT0=
EXTT1=
EXTT2=
EXTT3=
EXTT4=
EXTT5=
EXTT6=
EXTT7=
EXTT8=
EXTT9=
EXTT10=
EXTT11=
PLAYORDER=
